#!OML:ASF H:\LiuWeirdWalks\Patient Classification 1\Patient 1\Session 1\male.ASF
:FULLY-SPECIFIED
:DEGREES
1523
root 2.65033 18.1258 36.0392 5.52538 1.61561 5.77359
lowerback -1.52665 -1.98478 -13.1369
upperback -2.0244 -2.55015 2.18538
thorax -0.617764 -1.12635 9.70263
lowerneck -19.9219 3.72889 11.6402
upperneck 16.2665 3.91449 -10.6219
head 8.81055 1.45976 -5.05591
rclavicle 4.69629e-015 8.74653e-015
rhumerus -16.5963 -32.6511 -19.7898
rradius 24.4787
rwrist 1.88535
rhand -29.134 3.72177
rfingers 7.12502
rthumb -2.48111 -26.2435
lclavicle 4.69629e-015 8.74653e-015
lhumerus -39.6419 16.254 27.7741
lradius 44.4509
lwrist 27.1567
lhand -28.6827 0.90219
lfingers 7.12502
lthumb -2.04526 30.8721
rfemur -11.0068 -4.64069 9.19055
rtibia 30.1305
rfoot -14.6228 -16.468
rtoes -6.51991
lfemur -3.51373 -2.82785 -24.6355
ltibia 15.2821
lfoot -5.01959 21.126
ltoes -9.17887
1524
root 2.6504 18.1256 36.0419 5.57661 1.64858 5.88106
lowerback -1.56712 -2.00198 -13.2476
upperback -2.04912 -2.56803 2.18317
thorax -0.612913 -1.13313 9.76275
lowerneck -19.8698 3.72284 11.6325
upperneck 16.2699 3.91113 -10.6059
head 8.80152 1.46073 -5.04929
rclavicle -3.08116e-015 2.38542e-015
rhumerus -16.5937 -32.5665 -19.9064
rradius 24.3869
rwrist 1.83356
rhand -29.1667 3.72823
rfingers 7.12502
rthumb -2.51267 -26.2367
lclavicle -3.08116e-015 2.38542e-015
lhumerus -39.6335 16.2939 27.8487
lradius 44.424
lwrist 27.2699
lhand -28.6307 0.956918
lfingers 7.12502
lthumb -1.99506 30.9273
rfemur -11.0602 -4.66459 9.07376
rtibia 30.1741
rfoot -14.6518 -16.479
rtoes -6.50792
lfemur -3.52983 -2.83643 -24.7484
ltibia 15.2182
lfoot -4.9889 21.0919
ltoes -9.19055
1525
root 2.65072 18.1256 36.0446 5.60846 1.69218 5.92383
lowerback -1.59076 -2.01762 -13.2846
upperback -2.06763 -2.58631 2.19504
thorax -0.612682 -1.14088 9.79609
lowerneck -19.8336 3.71714 11.6195
upperneck 16.2889 3.90698 -10.5803
head 8.80019 1.46166 -5.03892
rclavicle 2.63887e-014 1.82882e-014
rhumerus -16.5963 -32.4476 -20.0513
rradius 24.2963
rwrist 1.72527
rhand -29.1989 3.71637
rfingers 7.12502
rthumb -2.54377 -26.2482
lclavicle 2.63887e-014 1.82882e-014
lhumerus -39.6278 16.3354 27.945
lradius 44.399
lwrist 27.3934
lhand -28.5604 0.968686
lfingers 7.12502
lthumb -1.92718 30.9397
rfemur -11.0863 -4.69503 9.0283
rtibia 30.2096
rfoot -14.6826 -16.4872
rtoes -6.4987
lfemur -3.52916 -2.84645 -24.791
ltibia 15.1642
lfoot -4.96707 21.0582
ltoes -9.19908
1526
root 2.65082 18.1256 36.0475 5.64135 1.74014 5.96749
lowerback -1.61857 -2.03584 -13.3216
upperback -2.08495 -2.60735 2.20397
thorax -0.608184 -1.15038 9.82588
lowerneck -19.8099 3.71538 11.614
upperneck 16.316 3.90524 -10.5549
head 8.80429 1.46388 -5.02981
rclavicle -6.67792e-015 1.19271e-014
rhumerus -16.6062 -32.2731 -20.2282
rradius 24.2077
rwrist 1.56376
rhand -29.2196 3.67762
rfingers 7.12502
rthumb -2.56378 -26.2867
lclavicle -6.67792e-015 1.19271e-014
lhumerus -39.6267 16.3851 28.0592
lradius 44.3728
lwrist 27.5031
lhand -28.4558 0.986068
lfingers 7.12502
lthumb -1.82612 30.958
rfemur -11.1083 -4.733 8.98273
rtibia 30.2383
rfoot -14.709 -16.4954
rtoes -6.49662
lfemur -3.53519 -2.85435 -24.8337
ltibia 15.1224
lfoot -4.94727 21.0187
ltoes -9.2113
1527
root 2.6507 18.1256 36.0504 5.67266 1.78941 6.00364
lowerback -1.64661 -2.05561 -13.3516
upperback -2.10038 -2.63035 2.21317
thorax -0.601213 -1.16123 9.8518
lowerneck -19.7931 3.71784 11.6193
upperneck 16.3449 3.90665 -10.535
head 8.81096 1.46755 -5.02409
rclavicle 1.22439e-014 -1.35174e-014
rhumerus -16.6276 -32.0203 -20.4447
rradius 24.1417
rwrist 1.3249
rhand -29.2235 3.58271
rfingers 7.12502
rthumb -2.56757 -26.3816
lclavicle 1.22439e-014 -1.35174e-014
lhumerus -39.6329 16.445 28.1943
lradius 44.3449
lwrist 27.6179
lhand -28.3256 0.959455
lfingers 7.12502
lthumb -1.70042 30.9324
rfemur -11.1234 -4.7698 8.94741
rtibia 30.2569
rfoot -14.7295 -16.5108
rtoes -6.50806
lfemur -3.54692 -2.86219 -24.8671
ltibia 15.0967
lfoot -4.93387 20.9791
ltoes -9.22967
1528
root 2.65023 18.1256 36.0533 5.70316 1.84281 6.03427
lowerback -1.67646 -2.07962 -13.3802
upperback -2.1121 -2.65852 2.22393
thorax -0.587822 -1.17535 9.87825
lowerneck -19.7734 3.7237 11.6338
upperneck 16.3598 3.91082 -10.5215
head 8.81304 1.47244 -5.02145
rclavicle 1.00883e-014 -1.59028e-015
rhumerus -16.6496 -31.7796 -20.6965
rradius 24.0743
rwrist 1.12203
rhand -29.1798 3.48499
rfingers 7.12502
rthumb -2.52537 -26.4798
lclavicle 1.00883e-014 -1.59028e-015
lhumerus -39.6565 16.5107 28.3503
lradius 44.3202
lwrist 27.6947
lhand -28.1467 0.92286
lfingers 7.12502
lthumb -1.52759 30.8971
rfemur -11.132 -4.80662 8.92002
rtibia 30.2668
rfoot -14.7437 -16.5307
rtoes -6.51261
lfemur -3.5648 -2.86833 -24.8923
ltibia 15.0833
lfoot -4.92597 20.9325
ltoes -9.24432
1529
root 2.64941 18.1255 36.056 5.73062 1.89999 6.0653
lowerback -1.70336 -2.10684 -13.4138
upperback -2.12183 -2.69123 2.23493
thorax -0.57252 -1.19195 9.90773
lowerneck -19.7356 3.73142 11.6571
upperneck 16.3478 3.9171 -10.5169
head 8.80344 1.4783 -5.02245
rclavicle 3.49116e-015 -2.14687e-014
rhumerus -16.6897 -31.5662 -20.9798
rradius 24.0254
rwrist 0.940275
rhand -29.0898 3.39713
rfingers 7.12502
rthumb -2.4384 -26.5687
lclavicle 3.49116e-015 -2.14687e-014
lhumerus -39.6862 16.6416 28.5136
lradius 44.2767
lwrist 27.6824
lhand -27.9177 0.969424
lfingers 7.12502
lthumb -1.30646 30.9452
rfemur -11.1203 -4.84551 8.89387
rtibia 30.2417
rfoot -14.733 -16.5555
rtoes -6.51756
lfemur -3.60362 -2.87056 -24.916
ltibia 15.1166
lfoot -4.94188 20.8821
ltoes -9.2632
1530
root 2.64823 18.126 36.0587 5.74767 1.96322 6.0434
lowerback -1.72407 -2.1359 -13.3975
upperback -2.12445 -2.72727 2.26054
thorax -0.55327 -1.21141 9.92427
lowerneck -19.6891 3.74066 11.6855
upperneck 16.3182 3.92503 -10.5177
head 8.78673 1.48483 -5.02555
rclavicle -6.83322e-017 5.08889e-014
rhumerus -16.7301 -31.4152 -21.3065
rradius 23.9837
rwrist 0.757285
rhand -28.9619 3.29032
rfingers 7.12502
rthumb -2.31489 -26.6769
lclavicle -6.83322e-017 5.08889e-014
lhumerus -39.7276 16.823 28.6906
lradius 44.2204
lwrist 27.5945
lhand -27.6317 1.04714
lfingers 7.12502
lthumb -1.03022 31.0244
rfemur -11.0848 -4.86775 8.93056
rtibia 30.1886
rfoot -14.7093 -16.5972
rtoes -6.52283
lfemur -3.64928 -2.87219 -24.879
ltibia 15.1823
lfoot -4.9758 20.8318
ltoes -9.27984
1531
root 2.64627 18.1276 36.0617 5.71659 2.03642 5.82822
lowerback -1.70933 -2.15491 -13.1882
upperback -2.11044 -2.75556 2.33632
thorax -0.543073 -1.22919 9.88538
lowerneck -19.6454 3.74945 11.7123
upperneck 16.2796 3.93177 -10.5181
head 8.76727 1.49063 -5.02815
rclavicle 1.46355e-014 -1.59028e-014
rhumerus -16.7857 -31.3246 -21.6721
rradius 23.9551
rwrist 0.552721
rhand -28.7936 3.16759
rfingers 7.12502
rthumb -2.15234 -26.8013
lclavicle 1.46355e-014 -1.59028e-014
lhumerus -39.7713 17.062 28.8839
lradius 44.1468
lwrist 27.4267
lhand -27.3008 1.20039
lfingers 7.12502
lthumb -0.710641 31.1789
rfemur -10.9872 -4.82282 9.19223
rtibia 30.1071
rfoot -14.6829 -16.6935
rtoes -6.51621
lfemur -3.65842 -2.87432 -24.6255
ltibia 15.2716
lfoot -5.03442 20.7924
ltoes -9.28053
1532
root 2.64414 18.1289 36.064 5.69662 2.1034 5.67974
lowerback -1.70281 -2.17773 -13.0484
upperback -2.09614 -2.78721 2.39277
thorax -0.525529 -1.24847 9.86498
lowerneck -19.604 3.75521 11.7294
upperneck 16.2375 3.93511 -10.5107
head 8.74629 1.4949 -5.02675
rclavicle 6.12505e-015 2.06736e-014
rhumerus -16.8514 -31.2518 -22.0831
rradius 23.9371
rwrist 0.286255
rhand -28.5864 2.98153
rfingers 7.12502
rthumb -1.95221 -26.9893
lclavicle 6.12505e-015 2.06736e-014
lhumerus -39.8245 17.3434 29.0981
lradius 44.0607
lwrist 27.1966
lhand -26.9262 1.41521
lfingers 7.12502
lthumb -0.34878 31.3947
rfemur -10.9069 -4.78891 9.37806
rtibia 30.0305
rfoot -14.6559 -16.7761
rtoes -6.51087
lfemur -3.67594 -2.87591 -24.4451
ltibia 15.3515
lfoot -5.08303 20.7525
ltoes -9.28277
1533
root 2.64191 18.13 36.0659 5.68091 2.15944 5.57593
lowerback -1.69791 -2.20108 -12.9559
upperback -2.08009 -2.81889 2.43646
thorax -0.504136 -1.26765 9.8578
lowerneck -19.5747 3.75535 11.7245
upperneck 16.2045 3.93286 -10.487
head 8.72897 1.49656 -5.01686
rclavicle 4.74723e-014 6.36111e-015
rhumerus -16.9252 -31.1666 -22.5453
rradius 23.9349
rwrist -0.0826149
rhand -28.3379 2.76076
rfingers 7.12502
rthumb -1.71228 -27.2121
lclavicle 4.74723e-014 6.36111e-015
lhumerus -39.8953 17.6386 29.3433
lradius 43.9682
lwrist 26.9326
lhand -26.5337 1.68595
lfingers 7.12502
lthumb 0.0302348 31.6657
rfemur -10.855 -4.75431 9.51265
rtibia 29.9971
rfoot -14.6495 -16.8498
rtoes -6.49952
lfemur -3.66836 -2.87776 -24.315
ltibia 15.371
lfoot -5.09457 20.7133
ltoes -9.29126
1534
root 2.6398 18.1304 36.0669 5.69947 2.20088 5.62597
lowerback -1.71946 -2.233 -13.0211
upperback -2.07048 -2.85745 2.43881
thorax -0.468812 -1.28939 9.89545
lowerneck -19.5556 3.75229 11.7056
upperneck 16.1778 3.92781 -10.4551
head 8.71479 1.49662 -5.00229
rclavicle -7.442e-015 -1.82882e-014
rhumerus -17.0065 -31.0731 -23.059
rradius 23.9445
rwrist -0.542841
rhand -28.0457 2.52348
rfingers 7.12502
rthumb -1.43005 -27.4515
lclavicle -7.442e-015 -1.82882e-014
lhumerus -39.9899 17.8997 29.6328
lradius 43.8768
lwrist 26.6549
lhand -26.1276 2.00286
lfingers 7.12502
lthumb 0.422519 31.9822
rfemur -10.8864 -4.75972 9.46962
rtibia 30.0597
rfoot -14.6855 -16.8838
rtoes -6.48661
lfemur -3.63534 -2.87971 -24.3563
ltibia 15.268
lfoot -5.02964 20.662
ltoes -9.30865
1535
root 2.63799 18.1294 36.0671 5.77598 2.22529 5.91319
lowerback -1.78535 -2.28064 -13.3314
upperback -2.07619 -2.90932 2.38017
thorax -0.414491 -1.31606 10.0061
lowerneck -19.5376 3.74995 11.6826
upperneck 16.1582 3.92582 -10.4255
head 8.70356 1.49762 -4.98764
rclavicle -4.41053e-015 7.95139e-015
rhumerus -17.1058 -30.94 -23.6232
rradius 23.9838
rwrist -1.08567
rhand -27.711 2.24803
rfingers 7.12502
rthumb -1.10677 -27.7288
lclavicle -4.41053e-015 7.95139e-015
lhumerus -40.1102 18.0894 29.9829
lradius 43.7862
lwrist 26.4573
lhand -25.7344 2.2727
lfingers 7.12502
lthumb 0.802231 32.2509
rfemur -11.0258 -4.83723 9.15317
rtibia 30.2231
rfoot -14.7594 -16.8568
rtoes -6.48311
lfemur -3.59924 -2.87877 -24.6614
ltibia 15.0409
lfoot -4.88486 20.5902
ltoes -9.3449
